<svg width="50" height="50" viewBox="0 0 50 50" fill="none" xmlns="http://www.w3.org/2000/svg">
<g clip-path="url(#clip0)">
<path d="M41.0774 18.1485C41.4812 8.93252 34.0908 1.3418 25 1.3418C15.895 1.3418 8.52236 8.94678 8.92236 18.1434C3.48037 20.8552 0 26.4372 0 32.5535C0 45.4079 14.3887 53.0286 25 45.9521C35.6099 53.0275 50 45.4104 50 32.5535C50 26.2546 46.3621 20.7902 41.0774 18.1485ZM31.9433 29.7511C31.2972 26.0657 29.3996 22.7893 26.6676 20.4101C30.4698 18.135 35.0388 17.8241 39.0088 19.3655C38.4118 23.7266 35.79 27.5737 31.9433 29.7511ZM25 43.529C21.7708 40.9037 19.7969 36.9629 19.7664 32.6585C23.3657 33.8811 27.0569 33.7555 30.2336 32.6585C30.2044 36.7825 28.3686 40.7904 25 43.529ZM19.8971 30.6239C19.9555 30.1974 20.0273 29.7977 20.1269 29.3672C20.1277 29.3632 20.1287 29.3593 20.1297 29.3554C20.8517 26.2445 22.6036 23.5246 25.0046 21.5742C27.7193 23.7828 29.6001 26.9715 30.1018 30.6242C26.8813 31.8745 23.226 31.9162 19.8971 30.6239ZM25 3.29492C32.7623 3.29492 39.083 9.58193 39.1396 17.3311C34.4563 15.7169 29.2023 16.3521 25.0058 19.1432C23.493 18.1384 21.7935 17.379 19.9581 16.9266C19.4349 16.7977 18.9054 17.1173 18.7762 17.6409C18.6471 18.1646 18.967 18.6938 19.4906 18.8229C20.8738 19.1639 22.1688 19.704 23.3481 20.4077C20.4707 22.9124 18.6916 26.2229 18.0685 29.6835C18.0644 29.706 18.0605 29.7285 18.0565 29.7511C14.3233 27.6379 11.6052 23.8535 10.9907 19.362C11.3506 19.2228 11.7167 19.0979 12.0854 18.9892C12.6025 18.8364 12.898 18.2932 12.7453 17.776C12.5926 17.2587 12.0495 16.9638 11.5321 17.1159C11.307 17.1824 11.0832 17.2561 10.8604 17.3327C10.9161 9.58272 17.2371 3.29492 25 3.29492ZM1.95312 32.5535C1.95312 27.4245 4.73926 22.724 9.1499 20.2342C9.1541 20.2581 9.1582 20.2821 9.1625 20.3061C10.0849 25.4279 13.4053 29.6429 17.8282 31.8468C17.6213 36.5968 19.5069 41.3478 23.3407 44.6921C14.021 50.2769 1.95312 43.5716 1.95312 32.5535ZM26.6594 44.6921C30.4395 41.3945 32.3814 36.6655 32.171 31.8472C36.5853 29.648 39.9134 25.438 40.8375 20.3061C40.8416 20.2836 40.8454 20.261 40.8494 20.2385C45.1426 22.6687 48.0469 27.278 48.0469 32.5535C48.0469 43.5746 35.976 50.275 26.6594 44.6921Z" fill="black"/>
<path d="M15.6904 18.4176C16.2319 18.4176 16.667 17.9783 16.667 17.441C16.667 16.8158 16.0916 16.3649 15.5 16.484C15.0312 16.5792 14.7139 16.9868 14.7139 17.441C14.7139 17.9745 15.1467 18.4176 15.6904 18.4176Z" fill="black"/>
</g>
<defs>
<clipPath id="clip0">
<rect width="50" height="50" fill="white"/>
</clipPath>
</defs>
</svg>
