<svg width="50" height="50" viewBox="0 0 50 50" fill="none" xmlns="http://www.w3.org/2000/svg">
<path d="M25 0C11.1824 0 0 11.1813 0 25C0 38.8176 11.1813 50 25 50C38.8176 50 50 38.8187 50 25C50 11.1824 38.8187 0 25 0ZM15.3268 5.15166C14.5702 7.21211 13.9352 9.30664 13.4226 11.4305C11.9244 10.9753 10.4507 10.4295 9.0043 9.79355C10.8357 7.86943 12.9699 6.30273 15.3268 5.15166ZM7.06426 12.1328C8.93643 12.9998 10.8524 13.7246 12.8066 14.306C12.2396 17.3326 11.9154 20.4132 11.8385 23.5352H2.97871C3.24854 19.3905 4.66094 15.4678 7.06426 12.1328ZM7.06426 37.8672C4.66094 34.5322 3.24854 30.6095 2.97871 26.4648H11.8385C11.9154 29.5868 12.2396 32.6674 12.8066 35.694C10.8524 36.2754 8.93652 37.0002 7.06426 37.8672ZM9.0043 40.2065C10.4507 39.5705 11.9243 39.0247 13.4226 38.5696C13.9353 40.6935 14.5702 42.788 15.3268 44.8484C12.9711 43.6979 10.8367 42.1315 9.0043 40.2065ZM23.5352 47.0213C21.9967 46.9212 20.4886 46.6644 19.0298 46.2571C17.8711 43.511 16.9463 40.6954 16.2565 37.8232C18.6313 37.2923 21.0611 36.9818 23.5352 36.894V47.0213ZM23.5352 33.9626C20.8547 34.0512 18.2222 34.3832 15.6493 34.9562C15.1382 32.1702 14.8437 29.3361 14.7691 26.4648H23.5352V33.9626ZM23.5352 23.5352H14.7691C14.8437 20.6639 15.1382 17.8298 15.6493 15.0438C18.2222 15.6168 20.8547 15.9488 23.5352 16.0374V23.5352ZM23.5352 13.106C21.0611 13.0182 18.6313 12.7077 16.2565 12.1768C16.9463 9.30459 17.8711 6.48896 19.0298 3.74287C20.4886 3.33564 21.9967 3.07881 23.5352 2.97871V13.106ZM42.9357 12.1328C45.3391 15.4678 46.7515 19.3905 47.0213 23.5352H38.1615C38.0846 20.4132 37.7604 17.3326 37.1934 14.306C39.1476 13.7246 41.0635 12.9998 42.9357 12.1328ZM40.9957 9.79346C39.5493 10.4295 38.0757 10.9753 36.5774 11.4304C36.0647 9.30654 35.4298 7.21201 34.6732 5.15156C37.0289 6.30205 39.1633 7.86846 40.9957 9.79346ZM26.4648 2.97871C28.0033 3.07881 29.5114 3.33564 30.9702 3.74287C32.1289 6.48896 33.0537 9.30459 33.7435 12.1768C31.3687 12.7077 28.9389 13.0182 26.4648 13.106V2.97871ZM26.4648 16.0374C29.1453 15.9488 31.7778 15.6168 34.3507 15.0438C34.8618 17.8298 35.1563 20.6639 35.2309 23.5352H26.4648V16.0374ZM30.9701 46.257C29.5114 46.6644 28.0033 46.9212 26.4648 47.0213V36.894C28.9389 36.9818 31.3687 37.2923 33.7435 37.8232C33.0536 40.6954 32.1289 43.511 30.9701 46.257ZM26.4648 33.9626V26.4648H35.2309C35.1563 29.3361 34.8618 32.1702 34.3507 34.9562C31.7778 34.3832 29.1453 34.0512 26.4648 33.9626ZM34.6732 44.8483C35.4298 42.7879 36.0648 40.6934 36.5774 38.5695C38.0756 39.0247 39.5493 39.5705 40.9957 40.2064C39.1643 42.1306 37.0301 43.6973 34.6732 44.8483ZM42.9357 37.8672C41.0636 37.0002 39.1476 36.2754 37.1934 35.694C37.7604 32.6674 38.0846 29.5868 38.1615 26.4648H47.0213C46.7515 30.6095 45.3391 34.5322 42.9357 37.8672Z" fill="black"/>
</svg>
