<svg width="50" height="50" viewBox="0 0 50 50" fill="none" xmlns="http://www.w3.org/2000/svg">
<path d="M10.4166 31.25H6.24998C3.95201 31.25 2.08331 33.1187 2.08331 35.4167V45.8333C2.08331 48.1313 3.95201 50 6.24998 50H10.4166C12.7146 50 14.5833 48.1313 14.5833 45.8333V42.7083H18.75V43.75C18.75 47.197 21.553 50 25 50C28.4469 50 31.25 47.197 31.25 43.75V42.7083H35.4166V45.8333C35.4166 48.1313 37.2853 50 39.5833 50H43.75C46.048 50 47.9166 48.1313 47.9166 45.8333V35.4167C47.9166 33.1187 46.048 31.25 43.75 31.25H39.5833C37.2853 31.25 35.4166 33.1187 35.4166 35.4167V38.5417H31.25V37.5C31.25 34.7844 29.5074 32.4748 27.0833 31.6147V15.2603C28.8543 14.6311 30.2561 13.2294 30.8853 11.4583H35.4166V14.5833C35.4166 16.8813 37.2853 18.75 39.5833 18.75H43.75C46.048 18.75 47.9166 16.8813 47.9166 14.5833V4.16667C47.9166 1.86869 46.048 0 43.75 0H39.5833C37.2853 0 35.4166 1.86869 35.4166 4.16667V7.29167H30.8853C30.0252 4.86755 27.7155 3.125 25 3.125C22.2844 3.125 19.9748 4.86755 19.1147 7.29167H14.5833V4.16667C14.5833 1.86869 12.7146 0 10.4166 0H6.24998C3.95201 0 2.08331 1.86869 2.08331 4.16667V14.5833C2.08331 16.8813 3.95201 18.75 6.24998 18.75H10.4166C12.7146 18.75 14.5833 16.8813 14.5833 14.5833V11.4583H19.1147C19.7438 13.2294 21.1456 14.6311 22.9166 15.2603V31.6147C20.4925 32.4748 18.75 34.7844 18.75 37.5V38.5417H14.5833V35.4167C14.5833 33.1187 12.7146 31.25 10.4166 31.25ZM39.5833 35.4167H43.75V45.8333H39.5833L39.5823 40.6397C39.5823 40.6352 39.5833 40.6301 39.5833 40.625C39.5833 40.6199 39.5823 40.6148 39.5823 40.6092L39.5803 35.4167H39.5833ZM39.5833 4.16667H43.75V14.5833H39.5833L39.5823 9.38975C39.5823 9.38517 39.5833 9.38009 39.5833 9.375C39.5833 9.36991 39.5823 9.36483 39.5823 9.35923L39.5803 4.16667H39.5833ZM10.4166 14.5833H6.24998L6.24794 4.16667H10.4166V14.5833ZM25 7.29167C26.149 7.29167 27.0833 8.22601 27.0833 9.375C27.0833 10.524 26.149 11.4583 25 11.4583C23.851 11.4583 22.9166 10.524 22.9166 9.375C22.9166 8.22601 23.851 7.29167 25 7.29167ZM22.9166 37.5C22.9166 36.351 23.851 35.4167 25 35.4167C26.149 35.4167 27.0833 36.351 27.0833 37.5V43.75C27.0833 44.899 26.149 45.8333 25 45.8333C23.851 45.8333 22.9166 44.899 22.9166 43.75V37.5ZM10.4166 45.8333H6.24998L6.24794 35.4167H10.4166V45.8333Z" fill="black"/>
</svg>
