<svg width="50" height="50" viewBox="0 0 50 50" fill="none" xmlns="http://www.w3.org/2000/svg">
<path d="M49.8615 23.1284L47.442 17.6491C47.1822 17.0608 46.5999 16.6813 45.9568 16.6813H41.9469C41.0502 16.6813 40.3233 17.408 40.3233 18.3048V20.8642H39.076V18.7583C39.076 17.8615 38.3491 17.1348 37.4525 17.1348H33.13V12.7047C33.13 11.8079 32.4031 11.0812 31.5065 11.0812H23.5198V9.53515H31.5065C32.4031 9.53515 33.13 8.80824 33.13 7.91162C33.13 7.01478 32.4031 6.28809 31.5065 6.28809H12.2865C11.3898 6.28809 10.6629 7.01478 10.6629 7.91162C10.6629 8.80824 11.3898 9.53515 12.2865 9.53515H20.2731V11.0812H12.2865C11.3898 11.0812 10.6629 11.8079 10.6629 12.7047V14.0542H7.10111C6.20449 14.0542 5.47758 14.7809 5.47758 15.6777V24.39H3.24706V15.6777C3.24706 14.7809 2.52015 14.0542 1.62353 14.0542C0.726909 14.0542 0 14.7811 0 15.6777V36.3498C0 37.2467 0.726909 37.9734 1.62353 37.9734C2.52015 37.9734 3.24706 37.2467 3.24706 36.3498V27.6371H5.47758V36.3498C5.47758 37.2467 6.20449 37.9734 7.10111 37.9734H13.4089L19.8181 43.3336C20.1104 43.578 20.4788 43.7118 20.8598 43.7118H37.4527C38.3493 43.7118 39.0762 42.9851 39.0762 42.0882V37.6625H40.3235V40.2218C40.3235 41.1187 41.0504 41.8454 41.9471 41.8454H45.957C46.6001 41.8454 47.1824 41.4659 47.4422 40.8775L49.8617 35.3982C49.9528 35.1917 50 34.9683 50 34.7425V23.7841C50 23.5586 49.9528 23.3349 49.8615 23.1284ZM46.7529 34.4003L44.8993 38.5985H43.5706V36.0392C43.5706 35.1423 42.8437 34.4157 41.9471 34.4157H37.4527C36.5561 34.4157 35.8292 35.1423 35.8292 36.0392V40.4649H21.449L15.0397 35.1047C14.7475 34.8603 14.3791 34.7265 13.9981 34.7265H8.72464V17.3013H12.2865C13.1831 17.3013 13.91 16.5746 13.91 15.6777V14.3282H29.8831V18.7588C29.8831 19.6556 30.6101 20.3823 31.5067 20.3823H35.8292V22.4881C35.8292 23.385 36.5561 24.1116 37.4527 24.1116H41.9471C42.8437 24.1116 43.5706 23.385 43.5706 22.4881V19.9286H44.8993L46.7529 24.1268V34.4003Z" fill="black"/>
</svg>
