<svg width="50" height="50" viewBox="0 0 50 50" fill="none" xmlns="http://www.w3.org/2000/svg">
<path d="M49.4451 14.79L40.5598 5.90497C39.8198 5.16516 38.6205 5.16516 37.8807 5.90497C37.1409 6.64477 37.1409 7.84428 37.8807 8.58383L43.4372 14.1403V35.4712C43.4372 37.3237 41.9303 38.8308 40.0782 38.8308C38.2257 38.8308 36.7186 37.3237 36.7186 35.4712V30.2537C36.7186 26.9681 34.4896 24.1948 31.4647 23.3623V11.9634V8.51993C31.4647 4.61731 28.2897 1.44238 24.3869 1.44238H11.4479C7.54507 1.44238 4.37014 4.61731 4.37014 8.51993V11.9634V24.7972V44.7687H1.89435C0.848164 44.7687 0 45.6169 0 46.6631C0 47.7093 0.848164 48.5574 1.89435 48.5574H33.9402C34.9866 48.5574 35.8346 47.7093 35.8346 46.6631C35.8346 45.6169 34.9866 44.7687 33.9402 44.7687H31.4647V27.4819C32.3484 28.0876 32.9299 29.1037 32.9299 30.2539V35.4715C32.9299 39.413 36.1364 42.6198 40.0782 42.6198C44.0197 42.6198 47.2259 39.413 47.2259 35.4715V17.8078C47.5007 17.9518 47.8031 18.0238 48.1054 18.0238C48.5901 18.0238 49.0751 17.8389 49.4451 17.4688C50.1849 16.729 50.1849 15.5298 49.4451 14.79ZM8.15884 13.8577H27.6762V22.9029H8.15884V13.8577ZM11.4479 5.23108H24.3869C26.2004 5.23108 27.676 6.70641 27.676 8.52018V10.0693H8.15884V8.52018C8.15884 6.70641 9.63416 5.23108 11.4479 5.23108ZM8.15884 44.7687V26.6916H27.6762V44.7687H8.15884Z" fill="black"/>
</svg>
