<svg width="50" height="50" viewBox="0 0 50 50" fill="none" xmlns="http://www.w3.org/2000/svg">
<g clip-path="url(#clip0)">
<path d="M28.7577 46.0938H26.8046V32.5652C29.5459 31.8571 31.7086 29.6944 32.4168 26.9531H43.1132C44.1919 26.9531 45.0663 26.0787 45.0663 25V3.90625H47.1171C48.1958 3.90625 49.0702 3.03184 49.0702 1.95312C49.0702 0.874414 48.1958 0 47.1171 0H39.3046C38.2259 0 37.3514 0.874414 37.3514 1.95312C37.3514 3.03184 38.2259 3.90625 39.3046 3.90625H41.16V23.0469H32.4168C31.7087 20.3056 29.546 18.1429 26.8046 17.4348V3.90625H28.7577C29.8364 3.90625 30.7108 3.03184 30.7108 1.95312C30.7108 0.874414 29.8364 0 28.7577 0H20.9452C19.8665 0 18.9921 0.874414 18.9921 1.95312C18.9921 3.03184 19.8665 3.90625 20.9452 3.90625H22.8983V17.4348C20.157 18.1429 17.9943 20.3056 17.2861 23.0469H8.15222V3.90625H10.1053C11.1841 3.90625 12.0585 3.03184 12.0585 1.95312C12.0585 0.874414 11.1841 0 10.1053 0H2.29285C1.21414 0 0.339722 0.874414 0.339722 1.95312C0.339722 3.03184 1.21414 3.90625 2.29285 3.90625H4.24597V46.0938H2.29285C1.21414 46.0938 0.339722 46.9682 0.339722 48.0469C0.339722 49.1256 1.21414 50 2.29285 50H10.1053C11.1841 50 12.0585 49.1256 12.0585 48.0469C12.0585 46.9682 11.1841 46.0938 10.1053 46.0938H8.15222V26.9531H17.2861C17.9942 29.6944 20.1569 31.8571 22.8983 32.5652V46.0938H20.9452C19.8665 46.0938 18.9921 46.9682 18.9921 48.0469C18.9921 49.1256 19.8665 50 20.9452 50H28.7577C29.8364 50 30.7108 49.1256 30.7108 48.0469C30.7108 46.9682 29.8364 46.0938 28.7577 46.0938ZM20.9452 25C20.9452 22.8461 22.6975 21.0938 24.8514 21.0938C27.0053 21.0938 28.7577 22.8461 28.7577 25C28.7577 27.1539 27.0053 28.9062 24.8514 28.9062C22.6975 28.9062 20.9452 27.1539 20.9452 25ZM47.1836 42.7178C48.679 41.6759 49.6602 39.945 49.6602 37.9883C49.6602 34.8112 47.0756 32.2266 43.8985 32.2266C40.6115 32.2266 37.9374 34.9007 37.9374 38.1877V48.0469C37.9374 49.1256 38.8118 50 39.8905 50C40.9692 50 41.8436 49.1256 41.8436 48.0469V43.75H43.3274L45.9295 48.9227C46.2618 49.5832 46.938 50 47.6774 50C49.1347 50 50.0806 48.4639 49.4246 47.1625L47.1836 42.7178ZM41.8436 38.1877C41.8436 37.0546 42.7654 36.1328 43.8985 36.1328C44.9217 36.1328 45.754 36.9651 45.754 37.9883C45.754 39.0114 44.9217 39.8438 43.8985 39.8438H41.8436V38.1877Z" fill="black"/>
</g>
<defs>
<clipPath id="clip0">
<rect width="50" height="50" fill="white"/>
</clipPath>
</defs>
</svg>
