<svg width="50" height="50" viewBox="0 0 50 50" fill="none" xmlns="http://www.w3.org/2000/svg">
<path d="M42.4945 12.6326C41.8308 11.969 40.7891 11.8712 40.0133 12.3998C37.0908 14.3918 22.4323 24.4085 20.8569 25.9838C18.5723 28.2684 18.5723 31.9856 20.8569 34.2703C21.9991 35.4125 23.4997 35.9837 25.0001 35.9837C26.5005 35.9837 28.001 35.4125 29.1434 34.2703C30.7187 32.6949 40.7353 18.0363 42.7274 15.1139C43.2558 14.3382 43.158 13.2964 42.4945 12.6326ZM26.3811 31.5081C25.6197 32.2697 24.3805 32.2697 23.6191 31.5081C22.8575 30.7467 22.8574 29.5079 23.6187 28.7464C24.2308 28.1415 28.3926 25.1733 33.5131 21.614C29.9539 26.7346 26.9858 30.8962 26.3811 31.5081Z" fill="black"/>
<path d="M9.00693 39.2113L6.5958 40.3875C4.83154 37.2389 3.90625 33.7245 3.90625 30.127C3.90625 27.4911 4.39229 24.9666 5.2793 22.6384L8.04209 23.9636C8.31455 24.0942 8.60215 24.1562 8.88545 24.1562C9.61328 24.1562 10.312 23.7475 10.6479 23.0473C11.1143 22.0747 10.7041 20.908 9.73145 20.4415L7.00371 19.1331C10.394 13.6038 16.26 9.74883 23.047 9.12285V12.0605C23.047 13.1392 23.9214 14.0136 25.0001 14.0136C26.0788 14.0136 26.9532 13.1392 26.9532 12.0605V9.12139C29.2802 9.3332 31.5317 9.92578 33.6691 10.8906C34.6521 11.3345 35.809 10.8971 36.2528 9.91416C36.6967 8.93096 36.2595 7.77422 35.2763 7.33037C32.0374 5.86836 28.58 5.12695 25 5.12695C18.3223 5.12695 12.0442 7.72734 7.32227 12.4492C2.60049 17.1712 0 23.4492 0 30.127C0 35.0615 1.46465 39.8607 4.23564 44.0054C4.60889 44.5635 5.22598 44.8731 5.86055 44.8731C6.14902 44.8731 6.44121 44.8092 6.71572 44.6753L10.7196 42.7222C11.6892 42.2492 12.0917 41.08 11.6187 40.1105C11.1458 39.141 9.97647 38.7386 9.00693 39.2113Z" fill="black"/>
<path d="M47.7965 19.8508C47.3527 18.8677 46.1962 18.4302 45.2127 18.8742C44.2296 19.3181 43.7924 20.4748 44.2362 21.4579C45.4688 24.1882 46.0937 27.1049 46.0937 30.127C46.0937 33.7299 45.1654 37.2499 43.396 40.4022L40.8787 39.2034C39.905 38.7398 38.7394 39.1531 38.2756 40.1272C37.8118 41.101 38.2254 42.2665 39.1993 42.7303L43.3009 44.6834C43.5707 44.8118 43.8567 44.8733 44.1395 44.8733C44.7743 44.8733 45.3915 44.5632 45.7642 44.0055C48.5353 39.8608 50 35.0615 50 30.127C50 26.547 49.2586 23.0896 47.7965 19.8508Z" fill="black"/>
</svg>
