<svg width="90" height="90" viewBox="0 0 90 90" fill="none" xmlns="http://www.w3.org/2000/svg">
<g clip-path="url(#clip0)">
<path d="M37.3463 40.5295H43.3465V43.5302H37.3463V40.5295Z" fill="black"/>
<path d="M88.5626 36.0444L78.3727 34.5892C76.5147 33.4478 74.5865 32.426 72.5984 31.5293C66.033 28.5555 58.9073 27.021 51.6991 27.0289H49.929C41.4226 27.035 33.0522 29.1696 25.581 33.2378L20.4384 36.0432C14.4187 36.1109 8.515 37.712 3.28515 40.6932C1.15976 41.9121 -0.152588 44.1736 -0.15625 46.6231V55.5306C-0.15625 56.3595 0.515183 57.031 1.3441 57.031H6.38107C8.01936 61.7048 13.1363 64.1659 17.8101 62.5276C20.3829 61.626 22.4051 59.6032 23.3067 57.031H63.3851C65.0234 61.7048 70.1404 64.1659 74.8141 62.5276C77.3863 61.626 79.4092 59.6032 80.3107 57.031H80.8491C81.0402 57.031 81.2294 56.995 81.407 56.9242L86.2657 54.9746C88.4363 54.1151 89.8579 52.0141 89.85 49.6806V37.5295C89.85 36.7836 89.3012 36.1506 88.5626 36.0444ZM20.7235 55.2309C20.06 58.4776 16.8902 60.5719 13.6435 59.9084C10.3962 59.2449 8.30198 56.0751 8.96547 52.8278C9.62958 49.5811 12.7994 47.4869 16.046 48.1504C18.8398 48.7211 20.8456 51.1791 20.845 54.0309C20.845 54.4337 20.8041 54.836 20.7235 55.2309ZM47.8469 54.0309H23.845C23.845 49.0598 19.8158 45.03 14.8448 45.03C9.87374 45.03 5.84392 49.0598 5.84392 54.0309H2.84384V46.6231C2.84567 45.2492 3.5818 43.9801 4.77451 43.2977C9.66987 40.5027 15.2086 39.0317 20.845 39.0299H47.8469V54.0309ZM47.8469 36.0298H26.7285L27.0179 35.8717C33.4313 32.3863 40.5552 30.4105 47.8469 30.0949V36.0298ZM50.847 30.029H51.6961C57.7414 30.0223 63.7318 31.1698 69.3468 33.4106L66.7276 36.0298H50.847V30.029ZM77.7275 55.2309C77.064 58.4776 73.8943 60.5719 70.647 59.9084C67.4003 59.2449 65.306 56.0751 65.9695 52.8278C66.633 49.5811 69.8034 47.4869 73.0501 48.1504C75.8439 48.7211 77.8496 51.1791 77.849 54.0309C77.849 54.4337 77.8081 54.836 77.7275 55.2309ZM86.8499 40.5296H82.3494V43.5303H86.8499V49.6806C86.8535 50.786 86.1797 51.781 85.1518 52.1869L80.8491 53.9149C80.8491 53.777 80.8314 53.6402 80.8222 53.5023C80.8131 53.3643 80.81 53.2026 80.7954 53.0524C80.7801 52.9023 80.7502 52.7521 80.7264 52.6026C80.702 52.4524 80.6843 52.3023 80.6544 52.1661C80.6245 52.0294 80.5805 51.878 80.5415 51.7352C80.5024 51.593 80.4725 51.4489 80.4273 51.3091C80.3828 51.17 80.3284 51.0363 80.2778 50.8996C80.2265 50.7634 80.1801 50.6224 80.1276 50.4869C80.0751 50.352 80.0043 50.2294 79.9414 50.1018C79.8786 49.9742 79.8169 49.8344 79.7467 49.7056C79.6759 49.5768 79.5966 49.467 79.5288 49.3473C79.4617 49.2271 79.3793 49.0904 79.2938 48.9677C79.2077 48.8444 79.1284 48.7473 79.046 48.6362C78.9636 48.5251 78.8702 48.3945 78.7744 48.2791C78.6785 48.1638 78.5888 48.0734 78.4954 47.9788C78.4026 47.8848 78.2989 47.7573 78.1957 47.6523C78.0919 47.5473 77.99 47.4643 77.8869 47.3715C77.7831 47.2787 77.672 47.1688 77.5579 47.0712C77.4443 46.9741 77.3283 46.899 77.2148 46.8136C77.1007 46.7281 76.9865 46.6366 76.8669 46.5566C76.7466 46.4773 76.6117 46.4071 76.483 46.3228C76.3535 46.2386 76.2486 46.1727 76.1271 46.1086C76.0056 46.0439 75.8542 45.9761 75.7163 45.9102C75.5783 45.8443 75.4703 45.7857 75.3427 45.732C75.2152 45.6776 75.0424 45.6209 74.8929 45.5672C74.7427 45.5128 74.6451 45.4707 74.5175 45.4304C74.3466 45.3779 74.1714 45.3401 73.9968 45.2968C73.8827 45.2699 73.7734 45.2339 73.6581 45.2101C73.4737 45.1722 73.2845 45.1515 73.0971 45.124C72.986 45.1094 72.8798 45.085 72.7687 45.0746C72.4684 45.0447 72.1687 45.0282 71.8537 45.0282C66.8845 45.0331 62.8577 49.0598 62.8529 54.0291H50.8476V39.0292H67.3484C67.7464 39.0292 68.1279 38.8711 68.4087 38.5898L72.2987 34.6997C73.9315 35.4767 75.5191 36.3453 77.0543 37.3012C77.2313 37.4117 77.4291 37.4843 77.636 37.5142L86.8499 38.8296V40.5296Z" fill="black"/>
</g>
<defs>
<clipPath id="clip0">
<rect width="90" height="90" fill="white"/>
</clipPath>
</defs>
</svg>
