<svg width="77" height="77" viewBox="0 0 77 77" fill="none" xmlns="http://www.w3.org/2000/svg">
<path d="M0.107994 37.4576C0.108185 37.4572 0.108185 37.457 0.108376 37.4566L14.6463 0.953144C14.9548 0.17754 15.834 -0.201099 16.6096 0.107443C16.6101 0.107631 16.6107 0.10782 16.6113 0.108198L75.5897 23.5929C75.8302 23.6968 76.0388 23.8627 76.1943 24.0735C76.6848 24.3284 76.9946 24.8329 76.9999 25.3855V64.6853C76.9999 65.5201 76.3231 66.1969 75.4884 66.1969H12.0041C11.1694 66.1969 10.4926 65.5201 10.4926 64.6853V43.2216L0.951805 39.4216C0.176392 39.1123 -0.201302 38.233 0.107994 37.4576ZM13.5156 63.1738H73.9769V26.8971H13.5156V63.1738ZM51.78 23.8816L26.471 13.7966C24.2122 16.1709 21.0824 17.5203 17.8054 17.5331L15.2811 23.8816H51.78ZM10.4926 39.9748V25.3855C10.4926 24.5508 11.1694 23.874 12.0041 23.874H12.0283L15.2312 15.8296C15.2668 15.7626 15.3081 15.6987 15.3552 15.6392C15.5173 14.9112 16.1914 14.4145 16.9347 14.4753C19.9839 14.7532 22.9667 13.4688 24.8597 11.0623C25.3307 10.4809 26.1587 10.3364 26.799 10.7237C26.8708 10.7322 26.942 10.7454 27.0121 10.763L57.9108 23.0668C58.2847 23.2135 58.5838 23.5042 58.7406 23.874H68.1242L16.8954 3.47589L3.47455 37.1755L10.4926 39.9748Z" fill="black"/>
<path d="M69.8746 52.9694C66.9399 53.8368 64.6436 56.1304 63.7725 59.0639C63.5815 59.7042 62.9926 60.1429 62.3245 60.1431C62.2461 60.1382 62.1682 60.1265 62.0917 60.1084C62.0239 60.1276 61.9545 60.1418 61.8846 60.1507H25.6079C25.5456 60.1426 25.484 60.1299 25.4235 60.1129C24.6683 60.2966 23.9072 59.8335 23.7234 59.0783C23.7228 59.0754 23.7221 59.0728 23.7215 59.07C22.8528 56.1334 20.556 53.8367 17.6195 52.9679C16.9074 52.7502 16.4649 52.0406 16.5826 51.3052C16.5623 51.2319 16.5478 51.1571 16.5387 51.0815V38.9893C16.5476 38.9135 16.5627 38.8387 16.5841 38.7656C16.4656 38.03 16.9083 37.32 17.621 37.1029C20.5575 36.2343 22.8537 33.9366 23.72 30.9993C23.9388 30.2823 24.6555 29.8387 25.3948 29.9624C25.4647 29.943 25.5359 29.9288 25.6079 29.9201H61.8846C61.9608 29.9292 62.0362 29.9443 62.1098 29.9654C62.845 29.8483 63.5543 30.2906 63.7725 31.0024C64.6419 33.9383 66.9384 36.2343 69.8746 37.1029C70.5867 37.3206 71.0292 38.0302 70.9115 38.7656C70.9311 38.8391 70.9453 38.9137 70.9538 38.9893V51.0815C70.9451 51.1526 70.9309 51.2228 70.9115 51.2916C71.0354 52.0317 70.592 52.7493 69.8746 52.9694ZM67.9308 39.603C64.8956 38.3839 62.49 35.9783 61.271 32.9432H26.2231C25.0035 35.9783 22.5973 38.3839 19.5618 39.603V50.4678C22.596 51.6882 25.0012 54.0934 26.2216 57.1276H61.271C62.4913 54.0934 64.8965 51.6882 67.9308 50.4678V39.603Z" fill="black"/>
<path d="M43.7463 54.1046C38.7374 54.1046 34.6771 50.0442 34.6771 45.0354C34.6771 40.0265 38.7374 35.9662 43.7463 35.9662C48.7551 35.9662 52.8154 40.0265 52.8154 45.0354C52.8105 50.0421 48.753 54.0996 43.7463 54.1046ZM43.7463 38.9892C40.4071 38.9892 37.7001 41.6962 37.7001 45.0354C37.7001 48.3745 40.4071 51.0815 43.7463 51.0815C47.0854 51.0815 49.7924 48.3745 49.7924 45.0354C49.7924 41.6962 47.0854 38.9892 43.7463 38.9892Z" fill="black"/>
<path d="M60.3731 47.3027C59.121 47.3027 58.1058 46.2875 58.1058 45.0354C58.1058 43.7833 59.121 42.7681 60.3731 42.7681C61.6252 42.7681 62.6404 43.7833 62.6404 45.0354C62.6404 46.2877 61.6252 47.3027 60.3731 47.3027ZM60.3731 44.2797C59.9557 44.2797 59.6173 44.618 59.6173 45.0354C59.6173 45.4528 59.9557 45.7912 60.3731 45.7912C60.7905 45.7912 61.1289 45.4528 61.1289 45.0354C61.1289 44.618 60.7905 44.2797 60.3731 44.2797Z" fill="black"/>
<path d="M27.1194 47.3027C25.8673 47.3027 24.8521 46.2875 24.8521 45.0354C24.8521 43.7833 25.8673 42.7681 27.1194 42.7681C28.3715 42.7681 29.3867 43.7833 29.3867 45.0354C29.3867 46.2877 28.3715 47.3027 27.1194 47.3027ZM27.1194 44.2797C26.7021 44.2797 26.3637 44.618 26.3637 45.0354C26.3637 45.4528 26.7021 45.7912 27.1194 45.7912C27.5368 45.7912 27.8752 45.4528 27.8752 45.0354C27.8752 44.618 27.5368 44.2797 27.1194 44.2797Z" fill="black"/>
</svg>
