<svg width="77" height="78" viewBox="0 0 77 78" fill="none" xmlns="http://www.w3.org/2000/svg">
<g clip-path="url(#clip0)">
<path d="M22.8073 33.5833L22.8045 33.6323C22.6148 36.9552 24.4761 40.068 27.5476 41.5604L27.5791 41.5758C28.662 42.0938 29.5496 42.9478 30.1096 44.0097L30.1222 44.0328C31.6699 46.9798 34.871 48.7662 38.2835 48.587L38.3353 48.5842C39.5729 48.5149 40.8014 48.8341 41.8486 49.4977C44.7381 51.3051 48.4061 51.3051 51.2957 49.4977C52.3429 48.8341 53.5714 48.5149 54.809 48.5842L54.8608 48.587C58.2676 48.7676 61.4729 46.9798 63.0241 44.0279L63.0318 44.0118C63.5939 42.9471 64.4836 42.0917 65.57 41.573L65.5952 41.5604C68.6668 40.0673 70.5288 36.9552 70.3384 33.6316L70.3356 33.5854C70.2726 32.415 70.5974 31.2565 71.261 30.2898C73.1713 27.5038 73.1713 23.8302 71.2617 21.0436C70.5988 20.0776 70.2726 18.9198 70.3356 17.7494L70.3384 17.7004C70.5288 14.3768 68.6668 11.2646 65.5924 9.77082L65.5644 9.75682C64.4836 9.24023 63.5981 8.39043 63.0374 7.33134L63.0213 7.29984C61.4729 4.35286 58.2676 2.56717 54.8608 2.74567L54.8083 2.74847C53.5714 2.81777 52.3429 2.49857 51.2964 1.83497H51.295C48.4054 0.027584 44.7374 0.027584 41.8479 1.83497C40.8007 2.49787 39.5722 2.81707 38.3346 2.74777L38.2828 2.74497C34.8752 2.56437 31.6706 4.35216 30.1229 7.29844L30.111 7.32014C29.5503 8.38413 28.662 9.23883 27.5777 9.75752L27.5483 9.77152C24.4768 11.2639 22.6148 14.3768 22.8052 17.7004L22.808 17.7466C22.871 18.917 22.5462 20.0755 21.8826 21.0415C19.9723 23.8281 19.9723 27.5024 21.8826 30.2884C22.5455 31.2544 22.871 32.4129 22.8073 33.5833ZM24.2423 22.6696C25.2664 21.1787 25.7683 19.3909 25.6703 17.5849L25.6675 17.5359C25.5667 15.3337 26.8028 13.2883 28.7985 12.3524L28.823 12.3405C30.4603 11.5565 31.8008 10.2657 32.6464 8.65993L32.6604 8.63333C33.6887 6.67474 35.8426 5.48755 38.1302 5.60935L38.1806 5.61145C40.0111 5.71435 41.8276 5.24255 43.3759 4.26116C45.331 3.03827 47.8118 3.03827 49.7669 4.26116C51.3153 5.24115 53.1318 5.71365 54.9616 5.61215L55.012 5.60935C57.3108 5.48895 59.4541 6.67474 60.4796 8.62773L60.4985 8.66343C61.3441 10.2671 62.6832 11.5558 64.3184 12.3391L64.3422 12.351C66.3694 13.3366 67.6 15.3715 67.4761 17.5366L67.4733 17.5877C67.3753 19.3937 67.8779 21.1808 68.902 22.6717C70.1396 24.477 70.1389 26.857 68.9006 28.6616C67.8772 30.1533 67.3753 31.9411 67.4733 33.7471L67.4761 33.7954C67.6 35.9605 66.3694 37.996 64.3415 38.9823L64.3205 38.9921C62.6818 39.7775 61.3399 41.0697 60.4936 42.6783L60.4831 42.6993C59.4541 44.6579 57.3038 45.8458 55.0127 45.7233L54.963 45.7205C53.1325 45.6183 51.3153 46.0908 49.7662 47.0715C47.8118 48.2937 45.331 48.2937 43.3766 47.0715C41.9683 46.179 40.3345 45.7058 38.6671 45.7072C38.5054 45.7072 38.343 45.7114 38.1806 45.7205L38.1302 45.7226C35.8727 45.8661 33.737 44.6845 32.6583 42.6958L32.6436 42.6685C31.7994 41.0655 30.461 39.7775 28.8265 38.9942L28.7999 38.9809C26.772 37.9953 25.5415 35.9598 25.6661 33.7954L25.6689 33.7443C25.7662 31.9383 25.2636 30.1505 24.2402 28.6602C23.0033 26.8549 23.004 24.4749 24.2423 22.671V22.6696Z" fill="black"/>
<path d="M37.3217 40.4867C37.993 40.906 38.8771 40.7009 39.2964 40.0296L56.279 12.8235C56.5562 12.3888 56.5793 11.8386 56.3385 11.3829C56.0977 10.9265 55.6301 10.6353 55.1149 10.6192C54.5997 10.6031 54.1153 10.8649 53.8465 11.3052L36.8646 38.5113C36.4453 39.1833 36.6497 40.0674 37.3217 40.4867Z" fill="black"/>
<path d="M38.8434 25.7371C42.3343 25.7371 45.1749 22.4982 45.1749 18.5173C45.1749 14.5365 42.3343 11.2983 38.8434 11.2983C35.3526 11.2983 32.5127 14.5365 32.5127 18.5173C32.5127 22.4982 35.3526 25.7371 38.8434 25.7371ZM38.8434 14.1655C40.7537 14.1655 42.3077 16.1177 42.3077 18.5173C42.3077 20.9169 40.7537 22.8699 38.8434 22.8699C36.9339 22.8699 35.3799 20.9162 35.3799 18.5173C35.3799 16.1184 36.9339 14.1655 38.8434 14.1655Z" fill="black"/>
<path d="M47.9686 32.8168C47.9686 36.7977 50.8085 40.0359 54.2994 40.0359C57.7902 40.0359 60.6308 36.797 60.6308 32.8168C60.6308 28.8374 57.7909 25.5978 54.3001 25.5978C50.8085 25.5978 47.9686 28.8353 47.9686 32.8168ZM57.7636 32.8168C57.7636 35.2164 56.2097 37.1687 54.2994 37.1687C52.3898 37.1687 50.8358 35.2164 50.8358 32.8168C50.8358 30.4172 52.3898 28.465 54.2994 28.465C56.2097 28.465 57.7636 30.4158 57.7636 32.8168Z" fill="black"/>
<path d="M76.814 56.6223C74.9156 53.2532 70.7059 51.9701 67.2514 53.7075L56.0214 59.0135C54.4709 56.1302 51.4966 54.2948 48.2234 54.2024L37.8565 53.9168C36.215 53.8699 34.6043 53.4534 33.1448 52.7002L32.0899 52.1535C26.6887 49.3381 20.2509 49.3451 14.8553 52.1717L14.9211 49.7819C14.9428 48.9902 14.3191 48.3308 13.5274 48.3091L2.15947 47.9962C1.36778 47.9745 0.709083 48.5982 0.687383 49.3899L0.000686827 74.3371C-0.0210131 75.1288 0.602683 75.7882 1.39438 75.8099L12.7623 76.1228H12.8022C13.5785 76.1221 14.2134 75.504 14.2351 74.7284L14.2673 73.5349L17.2206 71.9536C18.3798 71.3299 19.7357 71.1815 21.002 71.5399L38.637 76.4896C38.6678 76.4987 38.6986 76.5057 38.7301 76.5127C40.0047 76.7794 41.3039 76.9131 42.6066 76.9124C45.3646 76.9138 48.0904 76.3195 50.5971 75.1687C50.6587 75.1407 50.7182 75.1085 50.7749 75.0721L76.3443 58.5319C76.982 58.1203 77.1878 57.2824 76.814 56.6223ZM2.90637 72.9826L3.51397 50.9026L12.0161 51.1364L11.4078 73.2171L2.90637 72.9826ZM49.3049 72.6067C46.1906 74.0123 42.7123 74.4001 39.365 73.7155L21.7769 68.7798C19.798 68.2198 17.6784 68.4522 15.8675 69.4259L14.3583 70.2337L14.7629 55.5527C19.5446 52.3719 25.6779 52.045 30.7711 54.6987L31.826 55.2454C33.6698 56.1974 35.704 56.7231 37.7781 56.7826L48.145 57.0682C51.057 57.1515 53.5301 59.2249 54.1209 62.078L38.679 61.6531C37.8873 61.6314 37.2286 62.2551 37.2069 63.0468C37.1852 63.8385 37.8089 64.4979 38.6006 64.5196L55.642 64.9886H55.6826C56.4581 64.9879 57.093 64.3698 57.1147 63.5942C57.1322 62.9712 57.0853 62.3475 56.9761 61.7343L68.4925 56.2919L68.5261 56.2758C70.1599 55.4484 72.136 55.7249 73.4792 56.9688L49.3049 72.6067Z" fill="black"/>
</g>
<defs>
<clipPath id="clip0">
<rect width="77" height="77" fill="white" transform="translate(0 0.176453)"/>
</clipPath>
</defs>
</svg>
