<svg width="35" height="35" viewBox="0 0 35 35" fill="none" xmlns="http://www.w3.org/2000/svg">
<g clip-path="url(#clip0)">
<path d="M35 13.125H29.0568L22.8129 2.71838C22.5031 2.20144 21.8312 2.03266 21.3122 2.34349C20.7941 2.65432 20.6264 3.32612 20.9373 3.84417L26.5058 13.125H8.49431L14.0628 3.8441C14.3736 3.32605 14.206 2.65424 13.6879 2.34341C13.1677 2.03258 12.498 2.20137 12.1872 2.71831L5.94331 13.1249H0V15.3125H2.37389L5.15258 30.1347C5.44308 31.6867 6.79958 32.8125 8.37833 32.8125H26.6217C28.2004 32.8125 29.5569 31.6867 29.8464 30.1358L32.626 15.3125H35.0001C35 15.3125 35 13.125 35 13.125V13.125ZM27.6962 29.7331C27.6001 30.2501 27.1483 30.625 26.6217 30.625H8.37833C7.85174 30.625 7.39996 30.2502 7.30276 29.7321L4.59882 15.3125H30.4013L27.6962 29.7331V29.7331Z" fill="white"/>
</g>
<defs>
<clipPath id="clip0">
<rect width="35" height="35" fill="white"/>
</clipPath>
</defs>
</svg>
