<svg width="35" height="35" viewBox="0 0 35 35" fill="none" xmlns="http://www.w3.org/2000/svg">
<g clip-path="url(#clip0)">
<path d="M30.6009 2.05078H4.39906L0 14.6429V15.8423C0 17.5185 0.806162 19.0096 2.05078 19.9493V32.9492H32.9492V19.9493C34.1938 19.0096 35 17.5185 35 15.8423V14.6429L30.6009 2.05078ZM32.5302 13.7915H26.5991L24.9065 4.10156H29.1451L32.5302 13.7915ZM2.05078 15.8423H8.2373C8.2373 17.5479 6.84968 18.9355 5.14404 18.9355C3.43841 18.9355 2.05078 17.5479 2.05078 15.8423ZM16.4746 15.8423C16.4746 17.5479 15.087 18.9355 13.3813 18.9355C11.6757 18.9355 10.2881 17.5479 10.2881 15.8423H16.4746ZM10.4827 13.7915L12.1753 4.10156H16.4746V13.7915H10.4827ZM18.5254 13.7915V4.10156H22.8247L24.5173 13.7915H18.5254ZM24.7119 15.8423C24.7119 17.5479 23.3243 18.9355 21.6187 18.9355C19.913 18.9355 18.5254 17.5479 18.5254 15.8423H24.7119ZM5.85484 4.10156H10.0934L8.40082 13.7915H2.46976L5.85484 4.10156ZM30.8984 30.8984H4.10156V20.88C4.4383 20.9496 4.78693 20.9863 5.14404 20.9863C6.82698 20.9863 8.32364 20.1739 9.2627 18.9208C10.2017 20.1739 11.6984 20.9863 13.3813 20.9863C15.0643 20.9863 16.5609 20.1739 17.5 18.9208C18.4391 20.1739 19.9357 20.9863 21.6187 20.9863C23.3016 20.9863 24.7983 20.1739 25.7373 18.9208C26.6764 20.1739 28.173 20.9863 29.856 20.9863C30.2131 20.9863 30.5617 20.9496 30.8984 20.88V30.8984ZM29.856 18.9355C28.1503 18.9355 26.7627 17.5479 26.7627 15.8423H32.9492C32.9492 17.5479 31.5616 18.9355 29.856 18.9355Z" fill="white"/>
</g>
<defs>
<clipPath id="clip0">
<rect width="35" height="35" fill="white"/>
</clipPath>
</defs>
</svg>
