<svg width="15" height="15" viewBox="0 0 15 15" fill="none" xmlns="http://www.w3.org/2000/svg">
<g clip-path="url(#clip0)">
<path d="M14.6154 12.1695L2.85985 0.413998C2.34716 -0.0986928 1.51596 -0.0986928 1.00407 0.413998L0.384518 1.03259C-0.128173 1.54544 -0.128173 2.37664 0.384518 2.88853L12.14 14.6441C12.6529 15.1568 13.4841 15.1568 13.996 14.6441L14.6146 14.0255C15.1282 13.5136 15.1282 12.6822 14.6154 12.1695V12.1695Z" fill="#F44336"/>
<path d="M12.14 0.414183L0.384518 12.1697C-0.128173 12.6824 -0.128173 13.5138 0.384518 14.0257L1.00311 14.6442C1.51596 15.1569 2.34716 15.1569 2.85905 14.6442L14.6154 2.88952C15.1282 2.37683 15.1282 1.54563 14.6154 1.03374L13.9968 0.415145C13.4841 -0.0985077 12.6529 -0.0985077 12.14 0.414183V0.414183Z" fill="#F44336"/>
</g>
<defs>
<clipPath id="clip0">
<rect width="15" height="15" fill="white"/>
</clipPath>
</defs>
</svg>
