<svg width="50" height="50" viewBox="0 0 50 50" fill="none" xmlns="http://www.w3.org/2000/svg">
<path fill-rule="evenodd" clip-rule="evenodd" d="M26.1375 47.6999C38.5817 47.6999 48.6698 37.8128 48.6698 25.6165C48.6698 13.4203 38.5817 3.53323 26.1375 3.53323C13.6932 3.53323 3.60515 13.4203 3.60515 25.6165C3.60515 37.8128 13.6932 47.6999 26.1375 47.6999ZM26.1375 48.5832C39.0795 48.5832 49.5711 38.3007 49.5711 25.6165C49.5711 12.9324 39.0795 2.6499 26.1375 2.6499C13.1954 2.6499 2.70386 12.9324 2.70386 25.6165C2.70386 38.3007 13.1954 48.5832 26.1375 48.5832Z" fill="white"/>
<path d="M27.94 26.0583C27.94 27.2779 26.9312 28.2666 25.6868 28.2666C24.4423 28.2666 23.4335 27.2779 23.4335 26.0583C23.4335 24.8387 24.4423 23.85 25.6868 23.85C26.9312 23.85 27.94 24.8387 27.94 26.0583Z" fill="white"/>
<path d="M25.016 21.2705L34.0319 10.2233L20.7446 3.63064C30.1038 2.31059 35.0759 3.49274 43.2995 10.1064L39.5881 12.9801L30.9282 19.6853L25.016 21.2705Z" fill="white"/>
<path d="M30.0167 28.4952L29.1559 42.6164L43.8897 40.488C37.0223 46.8583 32.2652 48.7042 21.655 47.9522L22.9948 43.5064L26.1209 33.133L30.0167 28.4952Z" fill="white"/>
<path d="M24.5923 30.1192L10.7213 34.0314L17.6806 46.936C9.26322 42.7141 5.90168 38.934 3.08787 28.8793L7.81116 28.6352L18.8322 28.0655L24.5923 30.1192Z" fill="white"/>
<path d="M21.5809 25.2526L13.4795 13.5447L3.12422 24.035C4.60539 14.8822 7.22803 10.5768 16.1063 4.8334L17.8097 9.15796L21.7842 19.2486L21.5809 25.2526Z" fill="white"/>
<path d="M29.9245 22.4899L43.2422 27.945L46.0528 13.6111C49.9231 22.0665 50.1317 27.0766 45.907 36.6452L42.0668 33.9389L33.1064 27.6244L29.9245 22.4899Z" fill="white"/>
</svg>
