<svg width="45" height="36" viewBox="0 0 45 36" fill="none" xmlns="http://www.w3.org/2000/svg">
<path d="M6.5625 19.5C4.55294 19.5 2.91669 21.183 2.91669 23.25C2.91669 25.3169 4.55294 27 6.5625 27C8.57206 27 10.2083 25.317 10.2083 23.25C10.2083 21.183 8.57206 19.5 6.5625 19.5ZM6.5625 25.5C5.35644 25.5 4.375 24.4905 4.375 23.25C4.375 22.0095 5.35644 21 6.5625 21C7.76857 21 8.75 22.0095 8.75 23.25C8.75 24.4905 7.76857 25.5 6.5625 25.5Z" fill="white"/>
<path d="M28.4375 19.5C26.4279 19.5 24.7917 21.183 24.7917 23.25C24.7917 25.3169 26.4279 27 28.4375 27C30.4471 27 32.0833 25.317 32.0833 23.25C32.0833 21.183 30.4471 19.5 28.4375 19.5ZM28.4375 25.5C27.2314 25.5 26.25 24.4905 26.25 23.25C26.25 22.0095 27.2314 21 28.4375 21C29.6436 21 30.625 22.0095 30.625 23.25C30.625 24.4905 29.6436 25.5 28.4375 25.5Z" fill="white"/>
<path d="M30.625 15H29.3912C28.9406 15 28.4988 14.841 28.1458 14.55L22.4 9.82195C21.7554 9.2925 20.9461 9 20.1221 9H9.58125C8.35919 9 7.22606 9.62402 6.54794 10.6695L5.30688 12.5865C4.935 13.158 4.31375 13.5 3.64581 13.5C1.63625 13.5 0 15.183 0 17.25V20.25C0 22.317 1.63625 24 3.64581 24C4.04831 24 4.375 23.664 4.375 23.25C4.375 22.836 4.04831 22.5 3.64581 22.5C2.43975 22.5 1.45831 21.4905 1.45831 20.25V17.25C1.45831 16.0095 2.43975 15 3.64581 15C4.80375 15 5.87706 14.409 6.52019 13.4175L7.76125 11.5019C8.16813 10.875 8.84919 10.4999 9.58125 10.4999H20.1221C20.6179 10.4999 21.1021 10.6754 21.49 10.9934L27.2358 15.7199C27.8439 16.2224 28.611 16.4999 29.3927 16.4999H30.625C32.7644 16.4999 33.5417 18.7424 33.5417 20.2499C33.5417 21.7273 32.4421 22.4999 31.3542 22.4999C30.9517 22.4999 30.625 22.8359 30.625 23.2499C30.625 23.6639 30.9517 23.9999 31.3542 23.9999C33.4323 24 35 22.3875 35 20.25C35 17.7045 33.4673 15 30.625 15Z" fill="white"/>
<path d="M25.5208 22.5H9.47919C9.07669 22.5 8.75 22.836 8.75 23.25C8.75 23.664 9.07669 24 9.47919 24H25.5209C25.9234 24 26.2501 23.664 26.2501 23.25C26.2501 22.836 25.9233 22.5 25.5208 22.5Z" fill="white"/>
<path d="M24.0625 15H17.5V12.75C17.5 12.336 17.1733 12 16.7708 12C16.3683 12 16.0416 12.336 16.0416 12.75V15.75C16.0416 16.164 16.3683 16.5 16.7708 16.5H24.0625C24.465 16.5 24.7917 16.164 24.7917 15.75C24.7917 15.336 24.465 15 24.0625 15Z" fill="white"/>
<path d="M13.8542 15H9.2006L10.1325 13.086C10.3118 12.7155 10.166 12.2655 9.80578 12.0795C9.44409 11.895 9.0081 12.0435 8.82722 12.4155L7.36891 15.4155C7.25516 15.6465 7.26828 15.924 7.40097 16.1445C7.53365 16.365 7.76847 16.5 8.02078 16.5H13.8541C14.2566 16.5 14.5833 16.164 14.5833 15.75C14.5833 15.336 14.2567 15 13.8542 15Z" fill="white"/>
<path d="M19.6875 18H18.2292C17.8267 18 17.5 18.336 17.5 18.75C17.5 19.164 17.8267 19.5 18.2292 19.5H19.6875C20.09 19.5 20.4167 19.164 20.4167 18.75C20.4167 18.336 20.09 18 19.6875 18Z" fill="white"/>
<path d="M43.4891 13.0232H31.0937C30.49 13.0232 30 12.5332 30 11.9295C30 11.3257 30.49 10.8358 31.0937 10.8358H43.4891C44.0928 10.8358 44.5828 11.3257 44.5828 11.9295C44.5828 12.5332 44.0928 13.0232 43.4891 13.0232Z" fill="white"/>
<path d="M37.6559 18.8562C37.3758 18.8562 37.096 18.7497 36.8829 18.5355C36.4557 18.108 36.4557 17.4154 36.8829 16.9882L41.9432 11.9278L36.8829 6.86754C36.4557 6.44031 36.4557 5.74766 36.8829 5.32042C37.3102 4.89319 38.0028 4.89319 38.4303 5.32042L44.2634 11.1535C44.6906 11.5807 44.6906 12.2736 44.2634 12.7009L38.4303 18.5339C38.2159 18.7497 37.9358 18.8562 37.6559 18.8562V18.8562Z" fill="white"/>
</svg>
