<svg width="35" height="35" viewBox="0 0 35 35" fill="none" xmlns="http://www.w3.org/2000/svg">
<g clip-path="url(#clip0)">
<path d="M13.1246 16.7713C9.10407 16.7713 5.83307 13.5006 5.83307 9.48004C5.83307 5.45951 9.10407 2.18851 13.1246 2.18851C17.1451 2.18851 20.4161 5.45951 20.4161 9.48004C20.4161 13.5006 17.1451 16.7713 13.1246 16.7713V16.7713ZM13.1246 4.37594C10.3102 4.37594 8.0205 6.66537 8.0205 9.48004C8.0205 12.2944 10.3102 14.5839 13.1246 14.5839C15.939 14.5839 18.2287 12.2944 18.2287 9.48004C18.2287 6.66537 15.939 4.37594 13.1246 4.37594V4.37594Z" fill="white"/>
<path d="M25.1555 32.8126H1.09372C0.489983 32.8126 0 32.3226 0 31.7188V26.6147C0 22.7955 3.10758 19.688 6.92678 19.688H19.3224C23.1416 19.688 26.2492 22.7955 26.2492 26.6147V31.7188C26.2492 32.3226 25.7592 32.8126 25.1555 32.8126V32.8126ZM2.18743 30.6251H24.0617V26.6147C24.0617 24.0017 21.9355 21.8754 19.3224 21.8754H6.92678C4.31372 21.8754 2.18743 24.0017 2.18743 26.6147V30.6251Z" fill="white"/>
<path d="M33.9052 17.1361H21.5099C20.9061 17.1361 20.4161 16.6461 20.4161 16.0424C20.4161 15.4386 20.9061 14.9486 21.5099 14.9486H33.9052C34.5089 14.9486 34.9989 15.4386 34.9989 16.0424C34.9989 16.6461 34.5089 17.1361 33.9052 17.1361Z" fill="white"/>
<path d="M28.0721 22.9691C27.792 22.9691 27.5121 22.8626 27.2991 22.6484C26.8718 22.2209 26.8718 21.5283 27.2991 21.101L32.3594 16.0407L27.2991 10.9804C26.8718 10.5532 26.8718 9.86054 27.2991 9.43331C27.7263 9.00608 28.4189 9.00608 28.8464 9.43331L34.6795 15.2664C35.1067 15.6936 35.1067 16.3865 34.6795 16.8138L28.8464 22.6468C28.632 22.8626 28.3519 22.9691 28.0721 22.9691V22.9691Z" fill="white"/>
</g>
<defs>
<clipPath id="clip0">
<rect width="35" height="35" fill="white"/>
</clipPath>
</defs>
</svg>
